<mxfile host="app.diagrams.net" agent="Mozilla/5.0 (Windows NT 10.0; Win64; x64) AppleWebKit/537.36 (KHTML, like Gecko) Chrome/132.0.0.0 Safari/537.36" version="26.0.11">
  <diagram name="Page-1" id="adg5K_PATulxOInwhNTx">
    <mxGraphModel dx="989" dy="509" grid="1" gridSize="10" guides="1" tooltips="1" connect="1" arrows="1" fold="1" page="1" pageScale="1" pageWidth="850" pageHeight="1100" math="0" shadow="0">
      <root>
        <mxCell id="0" />
        <mxCell id="1" parent="0" />
        <mxCell id="gA0Sbd04sslmEq1r2UMb-47" value="" style="group" vertex="1" connectable="0" parent="1">
          <mxGeometry x="230" y="200" width="300" height="300" as="geometry" />
        </mxCell>
        <mxCell id="gA0Sbd04sslmEq1r2UMb-31" value="" style="group;flipV=1;flipH=1;" vertex="1" connectable="0" parent="gA0Sbd04sslmEq1r2UMb-47">
          <mxGeometry width="136.36363636363635" height="300" as="geometry" />
        </mxCell>
        <mxCell id="gA0Sbd04sslmEq1r2UMb-2" value="" style="endArrow=none;html=1;rounded=0;" edge="1" parent="gA0Sbd04sslmEq1r2UMb-31">
          <mxGeometry width="50" height="50" relative="1" as="geometry">
            <mxPoint x="122.72727272727272" y="241.66666666666669" as="sourcePoint" />
            <mxPoint x="88.63636363636363" y="283.33333333333337" as="targetPoint" />
          </mxGeometry>
        </mxCell>
        <mxCell id="gA0Sbd04sslmEq1r2UMb-3" value="" style="endArrow=none;html=1;rounded=0;" edge="1" parent="gA0Sbd04sslmEq1r2UMb-31">
          <mxGeometry width="50" height="50" relative="1" as="geometry">
            <mxPoint x="40.90909090909091" y="283.33333333333337" as="sourcePoint" />
            <mxPoint x="88.63636363636363" y="283.33333333333337" as="targetPoint" />
          </mxGeometry>
        </mxCell>
        <mxCell id="gA0Sbd04sslmEq1r2UMb-4" value="" style="endArrow=none;html=1;rounded=0;" edge="1" parent="gA0Sbd04sslmEq1r2UMb-31">
          <mxGeometry width="50" height="50" relative="1" as="geometry">
            <mxPoint x="6.8181818181818175" y="241.66666666666669" as="sourcePoint" />
            <mxPoint x="40.90909090909091" y="283.33333333333337" as="targetPoint" />
          </mxGeometry>
        </mxCell>
        <mxCell id="gA0Sbd04sslmEq1r2UMb-5" value="" style="endArrow=none;html=1;rounded=0;" edge="1" parent="gA0Sbd04sslmEq1r2UMb-31">
          <mxGeometry width="50" height="50" relative="1" as="geometry">
            <mxPoint x="122.72727272727272" y="183.33333333333334" as="sourcePoint" />
            <mxPoint x="122.72727272727272" y="241.66666666666669" as="targetPoint" />
          </mxGeometry>
        </mxCell>
        <mxCell id="gA0Sbd04sslmEq1r2UMb-6" value="" style="endArrow=none;html=1;rounded=0;" edge="1" parent="gA0Sbd04sslmEq1r2UMb-31">
          <mxGeometry width="50" height="50" relative="1" as="geometry">
            <mxPoint x="122.72727272727272" y="183.33333333333334" as="sourcePoint" />
            <mxPoint x="88.63636363636363" y="141.66666666666669" as="targetPoint" />
          </mxGeometry>
        </mxCell>
        <mxCell id="gA0Sbd04sslmEq1r2UMb-7" value="" style="endArrow=none;html=1;rounded=0;" edge="1" parent="gA0Sbd04sslmEq1r2UMb-31">
          <mxGeometry width="50" height="50" relative="1" as="geometry">
            <mxPoint x="40.90909090909091" y="141.66666666666669" as="sourcePoint" />
            <mxPoint x="88.63636363636363" y="141.66666666666669" as="targetPoint" />
          </mxGeometry>
        </mxCell>
        <mxCell id="gA0Sbd04sslmEq1r2UMb-8" value="" style="endArrow=none;html=1;rounded=0;" edge="1" parent="gA0Sbd04sslmEq1r2UMb-31">
          <mxGeometry width="50" height="50" relative="1" as="geometry">
            <mxPoint x="13.636363636363635" y="100" as="sourcePoint" />
            <mxPoint x="40.90909090909091" y="141.66666666666669" as="targetPoint" />
          </mxGeometry>
        </mxCell>
        <mxCell id="gA0Sbd04sslmEq1r2UMb-9" value="" style="endArrow=none;html=1;rounded=0;" edge="1" parent="gA0Sbd04sslmEq1r2UMb-31">
          <mxGeometry width="50" height="50" relative="1" as="geometry">
            <mxPoint x="13.636363636363635" y="41.66666666666667" as="sourcePoint" />
            <mxPoint x="13.636363636363635" y="100" as="targetPoint" />
          </mxGeometry>
        </mxCell>
        <mxCell id="gA0Sbd04sslmEq1r2UMb-10" value="" style="endArrow=none;html=1;rounded=0;" edge="1" parent="gA0Sbd04sslmEq1r2UMb-31">
          <mxGeometry width="50" height="50" relative="1" as="geometry">
            <mxPoint x="47.72727272727273" as="sourcePoint" />
            <mxPoint x="13.636363636363635" y="41.66666666666667" as="targetPoint" />
          </mxGeometry>
        </mxCell>
        <mxCell id="gA0Sbd04sslmEq1r2UMb-11" value="" style="endArrow=none;html=1;rounded=0;" edge="1" parent="gA0Sbd04sslmEq1r2UMb-31">
          <mxGeometry width="50" height="50" relative="1" as="geometry">
            <mxPoint x="47.72727272727273" as="sourcePoint" />
            <mxPoint x="95.45454545454545" as="targetPoint" />
          </mxGeometry>
        </mxCell>
        <mxCell id="gA0Sbd04sslmEq1r2UMb-13" value="" style="endArrow=none;html=1;rounded=0;" edge="1" parent="gA0Sbd04sslmEq1r2UMb-31">
          <mxGeometry width="50" height="50" relative="1" as="geometry">
            <mxPoint x="95.45454545454545" as="sourcePoint" />
            <mxPoint x="129.54545454545453" y="41.66666666666667" as="targetPoint" />
          </mxGeometry>
        </mxCell>
        <mxCell id="gA0Sbd04sslmEq1r2UMb-16" value="" style="endArrow=none;html=1;rounded=0;" edge="1" parent="gA0Sbd04sslmEq1r2UMb-31">
          <mxGeometry width="50" height="50" relative="1" as="geometry">
            <mxPoint x="68.18181818181817" y="16.666666666666668" as="sourcePoint" />
            <mxPoint x="88.63636363636363" y="16.666666666666668" as="targetPoint" />
          </mxGeometry>
        </mxCell>
        <mxCell id="gA0Sbd04sslmEq1r2UMb-17" value="" style="endArrow=none;html=1;rounded=0;" edge="1" parent="gA0Sbd04sslmEq1r2UMb-31">
          <mxGeometry width="50" height="50" relative="1" as="geometry">
            <mxPoint x="88.63636363636363" y="16.666666666666668" as="sourcePoint" />
            <mxPoint x="115.9090909090909" y="50" as="targetPoint" />
          </mxGeometry>
        </mxCell>
        <mxCell id="gA0Sbd04sslmEq1r2UMb-19" value="" style="endArrow=none;html=1;rounded=0;" edge="1" parent="gA0Sbd04sslmEq1r2UMb-31">
          <mxGeometry width="50" height="50" relative="1" as="geometry">
            <mxPoint x="54.54545454545454" y="16.666666666666668" as="sourcePoint" />
            <mxPoint x="68.18181818181817" y="16.666666666666668" as="targetPoint" />
          </mxGeometry>
        </mxCell>
        <mxCell id="gA0Sbd04sslmEq1r2UMb-20" value="" style="endArrow=none;html=1;rounded=0;" edge="1" parent="gA0Sbd04sslmEq1r2UMb-31">
          <mxGeometry width="50" height="50" relative="1" as="geometry">
            <mxPoint x="54.54545454545454" y="16.666666666666668" as="sourcePoint" />
            <mxPoint x="27.27272727272727" y="50" as="targetPoint" />
          </mxGeometry>
        </mxCell>
        <mxCell id="gA0Sbd04sslmEq1r2UMb-21" value="" style="endArrow=none;html=1;rounded=0;" edge="1" parent="gA0Sbd04sslmEq1r2UMb-31">
          <mxGeometry width="50" height="50" relative="1" as="geometry">
            <mxPoint x="27.27272727272727" y="50" as="sourcePoint" />
            <mxPoint x="27.27272727272727" y="91.66666666666667" as="targetPoint" />
          </mxGeometry>
        </mxCell>
        <mxCell id="gA0Sbd04sslmEq1r2UMb-22" value="" style="endArrow=none;html=1;rounded=0;" edge="1" parent="gA0Sbd04sslmEq1r2UMb-31">
          <mxGeometry width="50" height="50" relative="1" as="geometry">
            <mxPoint x="27.27272727272727" y="91.66666666666667" as="sourcePoint" />
            <mxPoint x="47.72727272727273" y="125" as="targetPoint" />
          </mxGeometry>
        </mxCell>
        <mxCell id="gA0Sbd04sslmEq1r2UMb-23" value="" style="endArrow=none;html=1;rounded=0;" edge="1" parent="gA0Sbd04sslmEq1r2UMb-31">
          <mxGeometry width="50" height="50" relative="1" as="geometry">
            <mxPoint x="47.72727272727273" y="125" as="sourcePoint" />
            <mxPoint x="95.45454545454545" y="125" as="targetPoint" />
          </mxGeometry>
        </mxCell>
        <mxCell id="gA0Sbd04sslmEq1r2UMb-24" value="" style="endArrow=none;html=1;rounded=0;" edge="1" parent="gA0Sbd04sslmEq1r2UMb-31">
          <mxGeometry width="50" height="50" relative="1" as="geometry">
            <mxPoint x="95.45454545454545" y="125" as="sourcePoint" />
            <mxPoint x="136.36363636363635" y="175" as="targetPoint" />
          </mxGeometry>
        </mxCell>
        <mxCell id="gA0Sbd04sslmEq1r2UMb-25" value="" style="endArrow=none;html=1;rounded=0;" edge="1" parent="gA0Sbd04sslmEq1r2UMb-31">
          <mxGeometry width="50" height="50" relative="1" as="geometry">
            <mxPoint x="136.36363636363635" y="175" as="sourcePoint" />
            <mxPoint x="136.36363636363635" y="250" as="targetPoint" />
          </mxGeometry>
        </mxCell>
        <mxCell id="gA0Sbd04sslmEq1r2UMb-26" value="" style="endArrow=none;html=1;rounded=0;" edge="1" parent="gA0Sbd04sslmEq1r2UMb-31">
          <mxGeometry width="50" height="50" relative="1" as="geometry">
            <mxPoint x="136.36363636363635" y="250" as="sourcePoint" />
            <mxPoint x="95.45454545454545" y="300" as="targetPoint" />
          </mxGeometry>
        </mxCell>
        <mxCell id="gA0Sbd04sslmEq1r2UMb-27" value="" style="endArrow=none;html=1;rounded=0;" edge="1" parent="gA0Sbd04sslmEq1r2UMb-31">
          <mxGeometry width="50" height="50" relative="1" as="geometry">
            <mxPoint x="34.090909090909086" y="300" as="sourcePoint" />
            <mxPoint x="95.45454545454545" y="300" as="targetPoint" />
          </mxGeometry>
        </mxCell>
        <mxCell id="gA0Sbd04sslmEq1r2UMb-28" value="" style="endArrow=none;html=1;rounded=0;" edge="1" parent="gA0Sbd04sslmEq1r2UMb-31">
          <mxGeometry width="50" height="50" relative="1" as="geometry">
            <mxPoint x="129.54545454545453" y="41.66666666666667" as="sourcePoint" />
            <mxPoint x="115.9090909090909" y="50" as="targetPoint" />
          </mxGeometry>
        </mxCell>
        <mxCell id="gA0Sbd04sslmEq1r2UMb-29" value="" style="endArrow=none;html=1;rounded=0;" edge="1" parent="gA0Sbd04sslmEq1r2UMb-31">
          <mxGeometry width="50" height="50" relative="1" as="geometry">
            <mxPoint y="258.33333333333337" as="sourcePoint" />
            <mxPoint x="34.090909090909086" y="300" as="targetPoint" />
          </mxGeometry>
        </mxCell>
        <mxCell id="gA0Sbd04sslmEq1r2UMb-30" value="" style="endArrow=none;html=1;rounded=0;" edge="1" parent="gA0Sbd04sslmEq1r2UMb-31">
          <mxGeometry width="50" height="50" relative="1" as="geometry">
            <mxPoint y="258.33333333333337" as="sourcePoint" />
            <mxPoint x="6.8181818181818175" y="241.66666666666669" as="targetPoint" />
          </mxGeometry>
        </mxCell>
        <mxCell id="gA0Sbd04sslmEq1r2UMb-46" value="" style="group" vertex="1" connectable="0" parent="gA0Sbd04sslmEq1r2UMb-47">
          <mxGeometry x="190.9090909090909" width="109.09090909090908" height="300" as="geometry" />
        </mxCell>
        <mxCell id="gA0Sbd04sslmEq1r2UMb-32" value="" style="endArrow=none;html=1;rounded=0;" edge="1" parent="gA0Sbd04sslmEq1r2UMb-46">
          <mxGeometry width="50" height="50" relative="1" as="geometry">
            <mxPoint as="sourcePoint" />
            <mxPoint y="300" as="targetPoint" />
          </mxGeometry>
        </mxCell>
        <mxCell id="gA0Sbd04sslmEq1r2UMb-33" value="" style="endArrow=none;html=1;rounded=0;" edge="1" parent="gA0Sbd04sslmEq1r2UMb-46">
          <mxGeometry width="50" height="50" relative="1" as="geometry">
            <mxPoint as="sourcePoint" />
            <mxPoint x="81.81818181818181" as="targetPoint" />
          </mxGeometry>
        </mxCell>
        <mxCell id="gA0Sbd04sslmEq1r2UMb-34" value="" style="endArrow=none;html=1;rounded=0;" edge="1" parent="gA0Sbd04sslmEq1r2UMb-46">
          <mxGeometry width="50" height="50" relative="1" as="geometry">
            <mxPoint x="81.81818181818181" as="sourcePoint" />
            <mxPoint x="109.09090909090908" y="33.333333333333336" as="targetPoint" />
          </mxGeometry>
        </mxCell>
        <mxCell id="gA0Sbd04sslmEq1r2UMb-35" value="" style="endArrow=none;html=1;rounded=0;" edge="1" parent="gA0Sbd04sslmEq1r2UMb-46">
          <mxGeometry width="50" height="50" relative="1" as="geometry">
            <mxPoint x="109.09090909090908" y="100" as="sourcePoint" />
            <mxPoint x="109.09090909090908" y="33.333333333333336" as="targetPoint" />
          </mxGeometry>
        </mxCell>
        <mxCell id="gA0Sbd04sslmEq1r2UMb-36" value="" style="endArrow=none;html=1;rounded=0;" edge="1" parent="gA0Sbd04sslmEq1r2UMb-46">
          <mxGeometry width="50" height="50" relative="1" as="geometry">
            <mxPoint x="81.81818181818181" y="133.33333333333334" as="sourcePoint" />
            <mxPoint x="109.09090909090908" y="100" as="targetPoint" />
          </mxGeometry>
        </mxCell>
        <mxCell id="gA0Sbd04sslmEq1r2UMb-37" value="" style="endArrow=none;html=1;rounded=0;" edge="1" parent="gA0Sbd04sslmEq1r2UMb-46">
          <mxGeometry width="50" height="50" relative="1" as="geometry">
            <mxPoint x="13.636363636363635" y="133.33333333333334" as="sourcePoint" />
            <mxPoint x="81.81818181818181" y="133.33333333333334" as="targetPoint" />
          </mxGeometry>
        </mxCell>
        <mxCell id="gA0Sbd04sslmEq1r2UMb-38" value="" style="endArrow=none;html=1;rounded=0;" edge="1" parent="gA0Sbd04sslmEq1r2UMb-46">
          <mxGeometry width="50" height="50" relative="1" as="geometry">
            <mxPoint x="13.636363636363635" y="133.33333333333334" as="sourcePoint" />
            <mxPoint x="13.636363636363635" y="300" as="targetPoint" />
          </mxGeometry>
        </mxCell>
        <mxCell id="gA0Sbd04sslmEq1r2UMb-39" value="" style="endArrow=none;html=1;rounded=0;" edge="1" parent="gA0Sbd04sslmEq1r2UMb-46">
          <mxGeometry width="50" height="50" relative="1" as="geometry">
            <mxPoint y="300" as="sourcePoint" />
            <mxPoint x="13.636363636363635" y="300" as="targetPoint" />
          </mxGeometry>
        </mxCell>
        <mxCell id="gA0Sbd04sslmEq1r2UMb-40" value="" style="endArrow=none;html=1;rounded=0;" edge="1" parent="gA0Sbd04sslmEq1r2UMb-46">
          <mxGeometry width="50" height="50" relative="1" as="geometry">
            <mxPoint x="13.636363636363635" y="116.66666666666667" as="sourcePoint" />
            <mxPoint x="13.636363636363635" y="16.666666666666668" as="targetPoint" />
          </mxGeometry>
        </mxCell>
        <mxCell id="gA0Sbd04sslmEq1r2UMb-41" value="" style="endArrow=none;html=1;rounded=0;" edge="1" parent="gA0Sbd04sslmEq1r2UMb-46">
          <mxGeometry width="50" height="50" relative="1" as="geometry">
            <mxPoint x="13.636363636363635" y="116.66666666666667" as="sourcePoint" />
            <mxPoint x="75" y="116.66666666666667" as="targetPoint" />
          </mxGeometry>
        </mxCell>
        <mxCell id="gA0Sbd04sslmEq1r2UMb-42" value="" style="endArrow=none;html=1;rounded=0;" edge="1" parent="gA0Sbd04sslmEq1r2UMb-46">
          <mxGeometry width="50" height="50" relative="1" as="geometry">
            <mxPoint x="13.636363636363635" y="16.666666666666668" as="sourcePoint" />
            <mxPoint x="75" y="16.666666666666668" as="targetPoint" />
          </mxGeometry>
        </mxCell>
        <mxCell id="gA0Sbd04sslmEq1r2UMb-43" value="" style="endArrow=none;html=1;rounded=0;" edge="1" parent="gA0Sbd04sslmEq1r2UMb-46">
          <mxGeometry width="50" height="50" relative="1" as="geometry">
            <mxPoint x="75" y="16.666666666666668" as="sourcePoint" />
            <mxPoint x="95.45454545454545" y="41.66666666666667" as="targetPoint" />
          </mxGeometry>
        </mxCell>
        <mxCell id="gA0Sbd04sslmEq1r2UMb-44" value="" style="endArrow=none;html=1;rounded=0;" edge="1" parent="gA0Sbd04sslmEq1r2UMb-46">
          <mxGeometry width="50" height="50" relative="1" as="geometry">
            <mxPoint x="95.45454545454545" y="91.66666666666667" as="sourcePoint" />
            <mxPoint x="75" y="116.66666666666667" as="targetPoint" />
          </mxGeometry>
        </mxCell>
        <mxCell id="gA0Sbd04sslmEq1r2UMb-45" value="" style="endArrow=none;html=1;rounded=0;" edge="1" parent="gA0Sbd04sslmEq1r2UMb-46">
          <mxGeometry width="50" height="50" relative="1" as="geometry">
            <mxPoint x="95.45454545454545" y="91.66666666666667" as="sourcePoint" />
            <mxPoint x="95.45454545454545" y="41.66666666666667" as="targetPoint" />
          </mxGeometry>
        </mxCell>
      </root>
    </mxGraphModel>
  </diagram>
</mxfile>
